<svg width="1036" height="235" viewBox="0 0 1036 235" fill="none" xmlns="http://www.w3.org/2000/svg">
<path d="M848 1.49999C925.225 0.877985 982.183 12.3337 1034.5 38.5L1035 190C1020.04 176.102 1009.3 168.593 983.5 156C958.706 145.655 946.818 141.607 931.5 139.5C908.309 134.851 892.438 133.005 855.5 132C806.891 133.52 783.512 135.654 748 141.5C703.466 149.55 679.886 155.1 638.5 165.5L532 191C494.024 199.392 472.422 203.854 433.5 211.5C400.231 217.871 381.931 221.168 350 226.5C275.463 234.125 289.379 233.269 239 234C202.592 233.375 179.586 231.686 129.5 224C78.1679 213.462 49.8949 206.412 0.5 191.5C26.9985 190.957 40.7298 190.628 62 188.5C112.383 182.25 139.136 177.325 184 166C257.776 145.927 292.951 135.106 356.5 115C415.316 96.3437 448.996 85.8289 510 67L512.554 66.22C577.866 46.2715 611.695 35.9391 672 21.5C738.509 7.79014 776.463 2.0073 848 1.49999Z" stroke="black"/>
</svg>
