<svg width="1801" height="600" viewBox="0 0 1801 600" fill="none" xmlns="http://www.w3.org/2000/svg">
<path d="M404 38.0001C236.534 -6.67263 129.461 -12.566 1 27.0001V598L1799.5 599.5L1800 147C1789.43 136.141 1781.78 130.524 1764.5 121.5C1723.56 99.2791 1693.76 91.7816 1626 89C1557.24 90.581 1523.49 94.982 1469 107C1400.12 122.876 1364.57 131.912 1300.5 148C1154.46 178.586 1086.45 190.474 1035.5 190C1000.2 191.27 979.775 190.808 942 187.5C908.74 183.84 888.243 180.295 848 171C816.271 163.141 797.789 158.266 762.5 148L592.5 95C498.648 65.5334 447.438 49.514 404 38.0001Z" stroke="black"/>
</svg>
